<svg xmlns="http://www.w3.org/2000/svg" version="1.1" xmlns:xlink="http://www.w3.org/1999/xlink" xmlns:svgjs="http://svgjs.dev/svgjs" width="1000" height="1000" viewBox="0 0 1000 1000"><rect width="1000" height="1000" fill="#ffffff"></rect><g transform="matrix(0.7,0,0,0.7,149.57575757575756,282.1265587044535)"><svg viewBox="0 0 396 247" data-background-color="#ffffff" preserveAspectRatio="xMidYMid meet" height="623" width="1000" xmlns="http://www.w3.org/2000/svg" xmlns:xlink="http://www.w3.org/1999/xlink"><g id="tight-bounds" transform="matrix(1,0,0,1,0.2400000000000091,-0.09999999999999432)"><svg viewBox="0 0 395.52 247.2" height="247.2" width="395.52"><g><svg></svg></g><g><svg viewBox="0 0 395.52 247.2" height="247.2" width="395.52"><g transform="matrix(1,0,0,1,39.55199999999999,102.88184369866228)"><svg viewBox="0 0 316.416 41.43631260267543" height="41.43631260267543" width="316.416"><g><svg viewBox="0 0 316.416 41.43631260267543" height="41.43631260267543" width="316.416"><g><svg viewBox="0 0 316.416 41.43631260267543" height="41.43631260267543" width="316.416"><g id="textblocktransform"><svg viewBox="0 0 316.416 41.43631260267543" height="41.43631260267543" width="316.416" id="textblock"><g><svg viewBox="0 0 316.416 41.43631260267543" height="41.43631260267543" width="316.416"><g transform="matrix(1,0,0,1,0,0)"><svg width="316.416" viewBox="4.309999942779541 -31.610000610351562 244.8699951171875 32.06999969482422" height="41.43631260267543" data-palette-color="#1c4b82"><g class="wordmark-text-0" data-fill-palette-color="primary" id="text-0"><path d="M13.97-13.68L8.16-13.68 8.16-1.9Q8.16-0.52 6.9-0.11L6.9-0.11Q6.55 0 6.03 0 5.52 0 4.91-0.46 4.31-0.92 4.31-1.9L4.31-1.9 4.31-29.43Q4.31-30.57 5.52-31.21L5.52-31.21Q5.86-31.38 6.32-31.38L6.32-31.38 14.14-31.38Q23.91-31.38 26.03-25.4L26.03-25.4Q26.55-24.02 26.55-22.47 26.55-20.92 26.09-19.6 25.63-18.28 24.77-17.24 23.91-16.21 22.7-15.57 21.49-14.94 20.11-14.48L20.11-14.48Q17.41-13.68 13.97-13.68L13.97-13.68ZM8.16-16.78L14.66-16.78Q18.39-16.78 20.17-18.05L20.17-18.05Q22.53-19.54 22.53-22.59L22.53-22.59Q22.53-25.52 20.17-27.01L20.17-27.01Q18.39-28.16 14.71-28.28L14.71-28.28 8.16-28.28 8.16-16.78ZM35.6-20.2Q35.05-17.82 35.05-15.55 35.05-13.28 35.6-10.86 36.15-8.45 37.47-6.64 38.79-4.83 40.74-3.74 42.7-2.64 45.51-2.64 48.33-2.64 50.34-3.74 52.35-4.83 53.62-6.64 54.88-8.45 55.49-10.86 56.09-13.28 56.09-15.55 56.09-17.82 55.49-20.2 54.88-22.59 53.62-24.4 52.35-26.21 50.34-27.3 48.33-28.39 45.51-28.39 42.7-28.39 40.74-27.3 38.79-26.21 37.47-24.4 36.15-22.59 35.6-20.2ZM30.74-15.63L30.74-15.63Q30.74-18.97 31.72-21.95 32.7-24.94 34.65-27.07L34.65-27.07Q38.56-31.55 45.46-31.61L45.46-31.61Q52.47-31.61 56.43-27.07L56.43-27.07Q58.33-24.94 59.28-21.95 60.23-18.97 60.23-15.63L60.23-15.63Q60.23-12.24 59.28-9.17 58.33-6.09 56.43-4.02L56.43-4.02Q52.47 0.46 45.46 0.46L45.46 0.46Q38.5 0.46 34.65-4.02L34.65-4.02Q32.7-6.21 31.72-9.22 30.74-12.24 30.74-15.63ZM67.35-1.9L67.35-29.43Q67.35-30.57 68.62-31.21L68.62-31.21Q68.96-31.38 69.36-31.38L69.36-31.38 78.73-31.38Q86.32-31.38 88.96-27.36L88.96-27.36Q89.88-25.69 89.88-23.13 89.88-20.57 88.21-18.79 86.55-17.01 83.44-16.38L83.44-16.38 83.44-16.21Q86.43-15.69 87.7-13.97L87.7-13.97Q88.67-12.53 88.93-10.11 89.19-7.7 89.36-6.32L89.36-6.32Q89.54-4.31 89.71-1.9L89.71-1.9Q89.71-0.92 89.1-0.46 88.5 0 87.75 0 87.01 0 86.43-0.43 85.86-0.86 85.74-1.72L85.74-1.72Q85.51-4.37 85.34-6.41 85.17-8.45 84.94-9.86 84.71-11.26 84.31-12.18 83.9-13.1 83.21-13.62L83.21-13.62Q82.06-14.48 78.67-14.6L78.67-14.6 71.26-14.6 71.26-1.9Q71.26-0.52 70.05-0.11L70.05-0.11Q69.71 0 69.16 0 68.62 0 67.98-0.46 67.35-0.92 67.35-1.9L67.35-1.9ZM71.26-17.59L77.01-17.59Q82.47-17.59 84.36-19.31L84.36-19.31Q85.74-20.52 85.86-22.93L85.86-22.93Q85.86-26.32 83.33-27.41L83.33-27.41Q81.95-28.1 80.57-28.19 79.19-28.28 78.39-28.28L78.39-28.28 71.26-28.28 71.26-17.59ZM104.13-28.1L95.57-28.1Q94.71-28.1 94.3-28.62 93.9-29.14 93.9-29.74 93.9-30.34 94.3-30.86 94.71-31.38 95.57-31.38L95.57-31.38 116.54-31.38Q117.35-31.38 117.75-30.86 118.15-30.34 118.15-29.74 118.15-29.14 117.72-28.62 117.29-28.1 116.54-28.1L116.54-28.1 108.04-28.1 108.04-1.9Q108.04-0.57 106.89-0.11L106.89-0.11Q106.54 0 105.97 0 105.39 0 104.76-0.46 104.13-0.92 104.13-1.9L104.13-1.9 104.13-28.1ZM122.69-1.9L122.69-29.48Q122.69-30.34 123.27-30.86 123.84-31.38 124.65-31.38L124.65-31.38 140.05-31.38Q140.91-31.38 141.28-30.86 141.66-30.34 141.66-29.74 141.66-29.14 141.28-28.62 140.91-28.1 140.05-28.1L140.05-28.1 126.71-28.1 126.71-17.93 139.53-17.93Q140.39-17.93 140.79-17.41 141.2-16.9 141.2-16.29 141.2-15.69 140.74-15.2 140.28-14.71 139.53-14.71L139.53-14.71 126.71-14.71 126.71-1.9Q126.71-1.03 126.25-0.57L126.25-0.57Q124.76 0.52 123.38-0.46L123.38-0.46Q122.81-0.86 122.69-1.9L122.69-1.9ZM151.45-20.2Q150.91-17.82 150.91-15.55 150.91-13.28 151.45-10.86 152-8.45 153.32-6.64 154.64-4.83 156.6-3.74 158.55-2.64 161.37-2.64 164.18-2.64 166.19-3.74 168.21-4.83 169.47-6.64 170.73-8.45 171.34-10.86 171.94-13.28 171.94-15.55 171.94-17.82 171.34-20.2 170.73-22.59 169.47-24.4 168.21-26.21 166.19-27.3 164.18-28.39 161.37-28.39 158.55-28.39 156.6-27.3 154.64-26.21 153.32-24.4 152-22.59 151.45-20.2ZM146.6-15.63L146.6-15.63Q146.6-18.97 147.57-21.95 148.55-24.94 150.5-27.07L150.5-27.07Q154.41-31.55 161.31-31.61L161.31-31.61Q168.32-31.61 172.29-27.07L172.29-27.07Q174.18-24.94 175.13-21.95 176.08-18.97 176.08-15.63L176.08-15.63Q176.08-12.24 175.13-9.17 174.18-6.09 172.29-4.02L172.29-4.02Q168.32 0.46 161.31 0.46L161.31 0.46Q154.36 0.46 150.5-4.02L150.5-4.02Q148.55-6.21 147.57-9.22 146.6-12.24 146.6-15.63ZM201.25 0L185.16 0Q183.84 0 183.32-1.15L183.32-1.15Q183.15-1.49 183.15-1.9L183.15-1.9 183.15-29.48Q183.15-30.8 184.35-31.21L184.35-31.21Q184.7-31.26 185.27-31.32 185.85-31.38 186.42-30.92 187-30.46 187-29.48L187-29.48 187-3.22 201.25-3.22Q202.11-3.22 202.49-2.73 202.86-2.24 202.86-1.64 202.86-1.03 202.46-0.52 202.05 0 201.25 0L201.25 0ZM208.6-1.9L208.6-29.48Q208.6-30.69 209.75-31.21L209.75-31.21Q210.1-31.26 210.73-31.32 211.36-31.38 211.91-30.92 212.45-30.46 212.45-29.48L212.45-29.48 212.45-1.9Q212.45-0.52 211.25-0.11L211.25-0.11Q210.9 0 210.33 0 209.75 0 209.18-0.46 208.6-0.92 208.6-1.9L208.6-1.9ZM224.55-20.2Q224-17.82 224-15.55 224-13.28 224.55-10.86 225.09-8.45 226.42-6.64 227.74-4.83 229.69-3.74 231.65-2.64 234.46-2.64 237.28-2.64 239.29-3.74 241.3-4.83 242.57-6.64 243.83-8.45 244.43-10.86 245.04-13.28 245.04-15.55 245.04-17.82 244.43-20.2 243.83-22.59 242.57-24.4 241.3-26.21 239.29-27.3 237.28-28.39 234.46-28.39 231.65-28.39 229.69-27.3 227.74-26.21 226.42-24.4 225.09-22.59 224.55-20.2ZM219.69-15.63L219.69-15.63Q219.69-18.97 220.67-21.95 221.65-24.94 223.6-27.07L223.6-27.07Q227.51-31.55 234.41-31.61L234.41-31.61Q241.42-31.61 245.38-27.07L245.38-27.07Q247.28-24.94 248.23-21.95 249.18-18.97 249.18-15.63L249.18-15.63Q249.18-12.24 248.23-9.17 247.28-6.09 245.38-4.02L245.38-4.02Q241.42 0.46 234.41 0.46L234.41 0.46Q227.45 0.46 223.6-4.02L223.6-4.02Q221.65-6.21 220.67-9.22 219.69-12.24 219.69-15.63Z" fill="#000000" data-fill-palette-color="primary"></path></g></svg></g></svg></g></svg></g></svg></g></svg></g></svg></g><g><path xmlns="http://www.w3.org/2000/svg" d="M0 247.2v-247.2h395.52v247.2zM391.783 243.463v-239.726h-388.046v239.726z" fill="#000000" fill-rule="nonzero" stroke="none" stroke-width="1" stroke-linecap="butt" stroke-linejoin="miter" stroke-miterlimit="10" stroke-dasharray="" stroke-dashoffset="0" font-family="none" font-weight="none" font-size="none" text-anchor="none" style="mix-blend-mode: normal" data-fill-palette-color="tertiary"></path></g></svg></g><defs></defs></svg><rect width="395.52" height="247.2" fill="none" stroke="none" visibility="hidden"></rect></g></svg></g></svg>